<svg xmlns="http://www.w3.org/2000/svg" viewBox="0 0 31.504 25.601">

	<path  d="M7910.473,7455.146a12.96,12.96,0,0,1-3.711,1.018,6.488,6.488,0,0,0,2.839-3.577,12.913,12.913,0,0,1-4.1,1.57,6.469,6.469,0,0,0-11.014,5.892,18.345,18.345,0,0,1-13.321-6.751,6.473,6.473,0,0,0,2,8.63,6.463,6.463,0,0,1-2.928-.809c0,.025,0,.054,0,.081a6.467,6.467,0,0,0,5.182,6.338,6.41,6.41,0,0,1-1.7.224,6.67,6.67,0,0,1-1.216-.113,6.471,6.471,0,0,0,6.037,4.487,12.973,12.973,0,0,1-8.027,2.768,12.8,12.8,0,0,1-1.542-.093,18.3,18.3,0,0,0,9.91,2.9c11.887,0,18.387-9.847,18.387-18.389,0-.28-.005-.559-.018-.838A13.156,13.156,0,0,0,7910.473,7455.146Z" transform="translate(-7878.968 -7452.115)" />
</svg>
