<svg xmlns="http://www.w3.org/2000/svg" viewBox="0 0 31.435 17.989">

	<path  d="M7344.5,7456.57h4.535c.626,0,.943-.039,1.38.733s2.043,4.975,4.1,6.922c.5.407,1.412.348,1.465-1.06a19.975,19.975,0,0,0-.209-4.631,1.576,1.576,0,0,0-1.285-1.194c-.49-.137-.34-.868.361-1.167a8.117,8.117,0,0,1,2.692-.381h2.548a1.9,1.9,0,0,1,2.109,1.948v5.633c0,1.1.832,1.46,1.72.355s3.176-5.638,3.575-6.3.5-.881,1.179-.881h5.208c.869,0,1.719.524,1.022,1.866a71.944,71.944,0,0,1-4.645,6.717c-.541.58-.426,1.157.167,1.8s4.017,4.1,4.517,4.97-.05,1.766-1.285,1.766h-4.393a3.6,3.6,0,0,1-2.862-1.393,13.481,13.481,0,0,0-2.483-2.384.887.887,0,0,0-1.422.589c-.211.7-.245,1.475-.391,2.229s-.5,1.035-1.676,1.035a10.064,10.064,0,0,1-4.415-.516c-2.176-.761-5-2.743-8.02-7.432-2.431-3.78-3.2-4.919-4.156-7.993C7343.553,7456.9,7343.8,7456.57,7344.5,7456.57Z" transform="translate(-7343.719 -7455.792)" />
</svg>
