<svg xmlns="http://www.w3.org/2000/svg" viewBox="0 0 16.724 29.245">

	<path  d="M8161.907,7479.1c-1.019-.906-3.886-3.631-4.5-4.215-.614.584-3.481,3.31-4.5,4.215a2.082,2.082,0,0,1-2.857-.117,2.134,2.134,0,0,1-.135-2.967c1.006-1.119,3.006-3.142,4.375-4.435a16.5,16.5,0,0,1-4.312-1.877,2.086,2.086,0,0,1-.533-2.992,2.044,2.044,0,0,1,2.871-.547,11.745,11.745,0,0,0,5,1.457.537.537,0,0,0,.183,0,11.745,11.745,0,0,0,5-1.457,2.045,2.045,0,0,1,2.871.547,2.088,2.088,0,0,1-.533,2.992,16.514,16.514,0,0,1-4.314,1.877c1.371,1.293,3.369,3.316,4.375,4.435a2.132,2.132,0,0,1-.135,2.967,2.577,2.577,0,0,1-1.571.646A1.893,1.893,0,0,1,8161.907,7479.1Zm-12.237-21.038a7.68,7.68,0,1,1,7.679,7.681A7.688,7.688,0,0,1,8149.67,7458.059Zm4.511,0a3.169,3.169,0,1,0,3.168-3.168A3.172,3.172,0,0,0,8154.181,7458.059Z" transform="translate(-8149.045 -7450.38)" />
</svg>
