<svg xmlns="http://www.w3.org/2000/svg" viewBox="0 0 24.993 24.993">
	<path  d="M8433.117,7476.559h-19.994a2.5,2.5,0,0,1-2.5-2.5v-19.994a2.5,2.5,0,0,1,2.5-2.5h19.994a2.5,2.5,0,0,1,2.5,2.5v19.994A2.5,2.5,0,0,1,8433.117,7476.559Zm-18.024-14.163h-1.97v10a1.664,1.664,0,0,0,1.666,1.667h16.66a1.666,1.666,0,0,0,1.668-1.667v-10h-2.206a8.1,8.1,0,1,1-16.008,1.722A8,8,0,0,1,8415.093,7462.4Zm7.908-2.569a4.289,4.289,0,1,0,4.291,4.29A4.289,4.289,0,0,0,8423,7459.827Zm7.383-6.023a3.011,3.011,0,1,0,3.01,3.012A3.011,3.011,0,0,0,8430.384,7453.8Z" transform="translate(-8410.624 -7451.566)" />
</svg>
